<?xml version="1.0" standalone="no"?>
<!DOCTYPE svg PUBLIC "-//W3C//DTD SVG 20010904//EN"
 "http://www.w3.org/TR/2001/REC-SVG-20010904/DTD/svg10.dtd">
<svg version="1.0" xmlns="http://www.w3.org/2000/svg"
 width="1800.000000pt" height="1800.000000pt" viewBox="0 0 1800.000000 1800.000000"
 preserveAspectRatio="xMidYMid meet">

<g transform="translate(0.000000,1800.000000) scale(0.100000,-0.100000)"
fill="#000000" stroke="none">
<path d="M4950 15240 c-240 -9 -502 -41 -670 -81 -132 -31 -183 -46 -330 -95
-276 -92 -560 -245 -825 -445 -154 -115 -430 -406 -578 -609 -26 -36 -67 -90
-90 -120 -37 -49 -107 -157 -107 -166 0 -2 -15 -27 -34 -56 -87 -137 -336
-633 -360 -718 -4 -14 -16 -44 -27 -67 -10 -24 -19 -47 -19 -51 0 -5 -18 -53
-40 -107 -22 -54 -40 -104 -40 -112 0 -7 -4 -21 -9 -31 -6 -9 -23 -62 -40
-117 -17 -55 -48 -159 -71 -230 -22 -72 -40 -138 -40 -146 0 -8 -8 -42 -19
-75 -29 -91 -85 -351 -101 -469 -5 -38 -16 -103 -25 -143 -8 -40 -15 -97 -15
-125 0 -29 -7 -99 -16 -157 -32 -225 -29 -708 6 -975 6 -44 15 -118 21 -165
11 -96 22 -162 50 -300 11 -52 24 -120 30 -150 6 -30 15 -66 19 -80 4 -14 16
-52 25 -85 38 -135 127 -398 175 -515 56 -139 235 -505 302 -617 245 -413 377
-587 729 -968 31 -33 71 -78 90 -100 42 -49 128 -143 234 -255 44 -47 99 -108
122 -136 23 -27 61 -70 85 -95 82 -86 194 -206 353 -379 88 -96 230 -246 316
-334 85 -89 202 -210 259 -271 57 -60 184 -194 282 -296 196 -203 212 -223
204 -244 -3 -8 -27 -27 -53 -42 -26 -15 -90 -57 -142 -93 -51 -36 -119 -81
-150 -100 l-56 -35 -145 -3 c-137 -3 -150 -2 -215 23 -91 34 -151 73 -198 130
-61 73 -69 102 -78 280 -10 212 -47 373 -97 428 -51 54 -209 74 -323 41 -99
-30 -190 -155 -211 -291 -10 -62 -8 -76 13 -143 32 -104 69 -153 184 -244 140
-112 301 -271 325 -320 35 -72 21 -145 -28 -146 -344 -11 -433 -11 -541 -1
-69 7 -178 16 -241 22 -63 5 -164 15 -223 21 -238 26 -390 -39 -469 -200 -31
-63 -33 -73 -36 -194 -3 -119 -2 -132 21 -182 30 -65 97 -141 147 -166 112
-57 223 -63 355 -22 123 39 141 50 215 128 194 203 198 206 385 254 50 12 177
13 230 0 51 -11 67 -34 59 -80 -8 -47 -23 -68 -91 -136 -72 -70 -177 -121
-325 -158 -134 -34 -223 -70 -313 -129 -132 -85 -157 -129 -163 -275 -4 -88
-1 -112 18 -165 27 -75 80 -134 158 -173 54 -28 63 -29 193 -29 132 0 136 1
171 27 67 51 137 193 210 426 47 150 112 245 247 357 75 63 119 83 187 84 67
1 78 -18 113 -197 23 -115 7 -281 -34 -362 -60 -116 -60 -117 -60 -270 0 -154
4 -168 59 -234 20 -24 33 -29 87 -33 36 -3 90 0 122 7 79 16 173 81 205 140
22 42 24 52 18 155 -6 115 -28 198 -79 300 -13 28 -43 109 -66 181 -37 115
-42 140 -39 209 3 72 5 79 31 99 24 18 43 21 120 21 79 0 98 -4 137 -25 38
-21 51 -38 82 -100 96 -194 269 -305 422 -271 66 15 109 47 138 104 17 34 19
52 14 108 -13 141 -80 218 -230 264 -45 14 -93 25 -106 25 -13 0 -37 4 -54 9
-17 6 -57 17 -88 26 -117 34 -205 124 -237 243 -15 55 -2 105 43 164 42 55
101 95 271 183 72 37 166 87 211 111 96 52 125 55 162 16 99 -105 1326 -1331
1446 -1445 83 -78 246 -234 364 -347 237 -228 228 -222 341 -197 36 9 111 25
166 37 55 12 114 26 130 30 17 5 66 16 110 24 116 22 396 83 500 110 50 13
117 29 150 36 33 7 92 21 130 30 39 10 97 23 130 30 33 7 98 23 145 36 47 13
162 42 255 65 94 22 197 49 230 59 33 10 152 44 265 75 113 31 246 70 295 85
50 15 151 47 225 70 292 89 578 182 735 238 61 22 182 66 270 97 88 31 183 65
210 75 28 11 79 30 115 43 153 57 278 106 320 125 25 11 102 43 172 71 70 28
155 64 190 80 113 50 152 68 188 81 19 7 53 24 75 36 22 12 65 32 95 44 53 21
725 354 745 370 6 4 114 66 240 137 550 311 953 589 1255 867 172 158 433 422
551 556 212 241 485 619 606 840 79 143 99 180 145 259 27 47 51 96 55 110 3
15 32 78 64 141 54 110 149 337 149 358 0 6 9 32 20 58 28 64 81 242 136 454
64 248 121 566 151 845 24 220 26 276 27 680 1 465 -7 580 -75 1120 -15 121
-79 338 -150 510 -12 28 -28 66 -36 85 -75 180 -314 597 -373 650 -3 3 -46 55
-97 115 -408 493 -1026 849 -1788 1031 -106 26 -387 81 -475 94 -119 18 -974
26 -1140 11 -157 -15 -314 -37 -405 -57 -38 -9 -92 -19 -120 -24 -27 -4 -86
-18 -130 -30 -44 -12 -105 -29 -135 -37 -87 -22 -224 -65 -235 -73 -5 -4 -25
-11 -43 -15 -18 -4 -68 -22 -111 -41 -44 -19 -84 -34 -91 -34 -13 0 -315 -148
-435 -214 -157 -86 -397 -247 -591 -398 -75 -59 -284 -245 -415 -369 -77 -73
-297 -322 -338 -381 -47 -69 -73 -65 -100 17 -26 82 -115 302 -143 353 -15 29
-28 59 -28 67 0 20 -228 469 -268 529 -18 26 -32 50 -32 53 0 3 -21 37 -46 77
-26 39 -67 103 -92 141 -304 469 -797 952 -1266 1242 -279 173 -679 345 -1046
450 -149 43 -405 103 -485 114 -33 5 -94 13 -135 19 -154 21 -365 46 -455 53
-27 3 -129 1 -225 -3z m335 -1467 c44 -8 103 -26 132 -39 70 -31 155 -112 189
-182 27 -54 29 -64 29 -192 0 -124 -3 -141 -28 -210 -33 -88 -112 -247 -162
-324 -50 -78 -196 -229 -290 -299 -76 -56 -283 -167 -312 -167 -8 0 -24 -7
-38 -16 -37 -24 -73 -19 -175 26 -301 133 -456 247 -659 485 -57 67 -119 179
-150 272 -16 47 -21 87 -21 166 0 95 2 109 30 164 36 72 138 174 230 228 62
37 70 39 169 43 124 5 199 -9 256 -48 46 -32 156 -144 174 -177 6 -13 15 -23
19 -23 4 1 29 33 56 73 85 123 207 215 316 236 53 10 125 5 235 -16z m2450
-834 c93 -24 165 -120 165 -222 0 -105 -77 -287 -165 -391 -62 -72 -179 -157
-244 -177 -31 -9 -49 -7 -110 11 -173 51 -274 114 -383 237 -78 87 -109 157
-109 242 0 77 21 120 88 180 64 57 90 65 192 59 67 -3 71 -5 120 -51 27 -26
56 -47 63 -47 7 0 26 23 43 51 38 63 63 87 112 104 47 17 168 19 228 4z m4527
-485 c80 -25 163 -96 222 -189 19 -28 37 -61 40 -73 10 -30 32 -28 53 6 39 60
139 142 223 181 45 21 73 27 155 30 141 5 217 -11 312 -65 154 -88 212 -172
220 -319 7 -120 -13 -210 -73 -327 -59 -118 -96 -174 -180 -271 -161 -187
-321 -289 -599 -382 -154 -52 -168 -51 -293 23 -141 84 -240 160 -353 272
-203 202 -349 485 -349 678 0 206 100 343 319 437 51 22 66 24 156 19 55 -3
121 -12 147 -20z m-4677 -1218 c282 -50 616 -178 925 -354 175 -99 247 -155
360 -277 257 -277 397 -537 472 -875 21 -94 23 -129 22 -340 0 -212 -3 -248
-27 -372 -23 -117 -163 -574 -197 -643 -5 -11 -30 -69 -56 -130 -59 -141 -127
-277 -222 -440 -334 -575 -925 -1065 -1592 -1322 -154 -59 -324 -116 -450
-150 l-135 -37 -310 -4 -310 -3 -201 35 c-386 68 -655 186 -899 396 -106 91
-175 170 -257 295 -75 114 -92 146 -152 287 -80 188 -125 365 -171 681 -21
142 -25 206 -25 400 0 127 4 258 10 291 5 34 17 105 25 160 61 374 230 781
445 1071 33 44 75 103 94 130 47 69 235 268 391 417 123 116 173 158 355 296
41 31 90 70 110 87 19 17 55 43 80 57 25 14 78 44 118 67 156 90 414 195 604
247 48 13 140 31 205 39 65 9 120 19 123 22 3 2 120 3 260 1 222 -4 275 -8
405 -32z m3220 -207 c54 -15 111 -71 131 -132 34 -102 1 -241 -98 -404 -36
-59 -131 -158 -176 -183 -15 -9 -49 -29 -77 -45 -73 -43 -124 -40 -250 16
-223 98 -405 303 -405 454 0 61 29 121 84 173 47 44 61 52 130 67 101 23 139
12 219 -64 31 -30 59 -52 61 -50 2 2 13 22 24 45 23 46 80 100 126 120 38 16
176 18 231 3z m-7965 -96 c42 -26 81 -66 96 -100 9 -17 21 -34 28 -36 7 -3 37
15 67 39 81 66 155 80 274 49 122 -32 178 -98 179 -211 0 -73 -43 -172 -118
-271 -91 -120 -267 -225 -407 -243 -93 -11 -107 -5 -232 100 -109 91 -145 136
-208 255 -38 71 -43 89 -47 160 -4 67 -1 90 17 130 41 95 161 161 271 149 30
-3 66 -12 80 -21z m12067 -568 c24 -7 62 -24 86 -38 180 -106 10 -512 -274
-658 -69 -35 -142 -36 -218 -4 -95 39 -167 92 -256 187 -86 91 -121 155 -131
238 -9 77 8 129 57 179 51 52 106 80 168 88 68 8 118 -12 173 -69 47 -47 48
-48 73 -32 13 9 27 24 30 33 7 24 42 55 90 80 33 18 50 20 100 15 33 -4 79
-12 102 -19z m-927 -2260 c69 -18 98 -40 128 -96 22 -40 23 -52 18 -126 -6
-77 -15 -107 -64 -211 -22 -46 -117 -148 -184 -198 -75 -55 -186 -98 -230 -89
-91 19 -255 125 -335 217 -82 94 -108 136 -127 209 -17 63 -17 67 3 120 30 79
102 147 172 163 105 25 172 6 231 -64 19 -22 40 -40 46 -40 6 0 23 16 38 36
15 19 46 48 68 64 36 25 50 29 111 29 39 1 95 -6 125 -14z m-5405 -1411 c290
-169 421 -248 499 -301 43 -29 80 -53 82 -53 14 0 347 -259 424 -330 231 -213
398 -448 445 -630 79 -302 -40 -586 -350 -836 -64 -52 -254 -180 -353 -239 -9
-6 -39 -24 -67 -40 -27 -17 -57 -34 -66 -40 -9 -5 -61 -37 -115 -70 -55 -32
-124 -72 -154 -88 -127 -67 -407 -205 -430 -212 -14 -4 -43 -17 -65 -30 -138
-78 -760 -309 -980 -364 -44 -11 -107 -29 -139 -41 -65 -22 -93 -25 -116 -10
-39 24 -1254 1249 -1265 1275 -10 23 -11 82 -5 262 5 127 13 249 19 270 5 21
15 74 21 118 22 148 94 394 148 502 16 32 32 70 35 84 8 33 30 38 192 39 404
3 893 139 1350 375 61 31 117 62 125 69 8 7 24 16 34 20 38 13 304 197 406
280 94 77 109 86 140 82 21 -2 96 -40 185 -92z m3309 -44 c102 -12 153 -32
213 -84 55 -48 90 -110 113 -203 25 -97 25 -185 0 -316 -51 -265 -141 -438
-324 -622 -61 -61 -143 -133 -183 -159 -84 -55 -113 -58 -259 -31 -291 53
-508 160 -710 349 -107 100 -155 168 -191 269 -49 140 -22 256 92 401 93 117
156 146 324 146 96 0 115 -3 167 -27 33 -14 81 -46 108 -70 26 -23 52 -43 57
-43 5 0 14 12 20 28 66 164 152 282 236 323 36 18 138 38 238 48 6 0 50 -4 99
-9z"/>
<path d="M5960 10593 c-64 -23 -81 -106 -34 -162 38 -46 59 -54 100 -41 74 25
105 111 64 178 -18 29 -24 32 -67 31 -27 0 -55 -3 -63 -6z"/>
<path d="M6999 10471 c-37 -37 -38 -83 -4 -151 29 -57 33 -60 157 -101 472
-157 697 -500 715 -1090 4 -133 2 -155 -23 -259 -60 -253 -158 -397 -404 -594
-88 -71 -103 -79 -209 -112 -174 -55 -327 -77 -496 -71 -167 6 -260 25 -375
75 -116 51 -201 110 -290 202 -104 106 -172 209 -256 390 -71 151 -74 155
-112 166 -52 16 -106 -3 -154 -55 -35 -37 -38 -45 -38 -100 0 -167 140 -422
345 -627 126 -126 234 -197 405 -264 152 -61 262 -80 482 -87 239 -8 316 1
598 69 135 32 186 57 350 173 103 72 279 246 341 335 66 97 125 208 147 281
67 218 66 211 66 429 1 197 0 209 -28 300 -68 227 -136 390 -218 519 -125 198
-359 417 -554 519 -124 64 -191 82 -312 82 -101 0 -104 -1 -133 -29z"/>
<path d="M5680 10374 c-99 -15 -122 -36 -122 -109 0 -63 24 -103 68 -111 87
-16 151 21 161 93 8 59 -38 139 -75 132 -4 -1 -18 -3 -32 -5z"/>
</g>
</svg>
