<svg width="1712" height="960" viewBox="0 0 1712 960" fill="none" xmlns="http://www.w3.org/2000/svg">
<rect width="1712" height="960" fill="white"/>
<path d="M325 372.965C317.853 372.965 311.667 371.685 306.44 369.125C301.213 366.459 296.893 362.672 293.48 357.765C290.067 352.859 287.507 346.832 285.8 339.685C284.2 332.539 283.4 324.379 283.4 315.205C283.4 306.139 284.2 298.032 285.8 290.885C287.507 283.632 290.067 277.552 293.48 272.645C296.893 267.739 301.213 264.005 306.44 261.445C311.667 258.779 317.853 257.445 325 257.445C339.187 257.445 349.64 262.512 356.36 272.645C363.187 282.779 366.6 296.965 366.6 315.205C366.6 333.445 363.187 347.632 356.36 357.765C349.64 367.899 339.187 372.965 325 372.965ZM325 355.205C332.147 355.205 337.107 352.539 339.88 347.205C342.76 341.765 344.2 334.459 344.2 325.285V305.125C344.2 295.952 342.76 288.699 339.88 283.365C337.107 277.925 332.147 275.205 325 275.205C317.853 275.205 312.84 277.925 309.96 283.365C307.187 288.699 305.8 295.952 305.8 305.125V325.285C305.8 334.459 307.187 341.765 309.96 347.205C312.84 352.539 317.853 355.205 325 355.205Z" fill="#ABA5B6"/>
<path d="M401.577 372.805C397.204 372.805 393.951 371.739 391.817 369.605C389.791 367.365 388.777 364.539 388.777 361.125V358.245C388.777 354.832 389.791 352.005 391.817 349.765C393.951 347.525 397.204 346.405 401.577 346.405C406.057 346.405 409.311 347.525 411.337 349.765C413.364 352.005 414.377 354.832 414.377 358.245V361.125C414.377 364.539 413.364 367.365 411.337 369.605C409.311 371.739 406.057 372.805 401.577 372.805Z" fill="#ABA5B6"/>
<path d="M478.35 372.965C471.203 372.965 465.017 371.685 459.79 369.125C454.563 366.459 450.243 362.672 446.83 357.765C443.417 352.859 440.857 346.832 439.15 339.685C437.55 332.539 436.75 324.379 436.75 315.205C436.75 306.139 437.55 298.032 439.15 290.885C440.857 283.632 443.417 277.552 446.83 272.645C450.243 267.739 454.563 264.005 459.79 261.445C465.017 258.779 471.203 257.445 478.35 257.445C492.537 257.445 502.99 262.512 509.71 272.645C516.537 282.779 519.95 296.965 519.95 315.205C519.95 333.445 516.537 347.632 509.71 357.765C502.99 367.899 492.537 372.965 478.35 372.965ZM478.35 355.205C485.497 355.205 490.457 352.539 493.23 347.205C496.11 341.765 497.55 334.459 497.55 325.285V305.125C497.55 295.952 496.11 288.699 493.23 283.365C490.457 277.925 485.497 275.205 478.35 275.205C471.203 275.205 466.19 277.925 463.31 283.365C460.537 288.699 459.15 295.952 459.15 305.125V325.285C459.15 334.459 460.537 341.765 463.31 347.205C466.19 352.539 471.203 355.205 478.35 355.205Z" fill="#ABA5B6"/>
<path d="M579.087 372.965C571.941 372.965 565.754 371.685 560.527 369.125C555.301 366.459 550.981 362.672 547.567 357.765C544.154 352.859 541.594 346.832 539.887 339.685C538.287 332.539 537.487 324.379 537.487 315.205C537.487 306.139 538.287 298.032 539.887 290.885C541.594 283.632 544.154 277.552 547.567 272.645C550.981 267.739 555.301 264.005 560.527 261.445C565.754 258.779 571.941 257.445 579.087 257.445C593.274 257.445 603.727 262.512 610.447 272.645C617.274 282.779 620.687 296.965 620.687 315.205C620.687 333.445 617.274 347.632 610.447 357.765C603.727 367.899 593.274 372.965 579.087 372.965ZM579.087 355.205C586.234 355.205 591.194 352.539 593.967 347.205C596.847 341.765 598.287 334.459 598.287 325.285V305.125C598.287 295.952 596.847 288.699 593.967 283.365C591.194 277.925 586.234 275.205 579.087 275.205C571.941 275.205 566.927 277.925 564.047 283.365C561.274 288.699 559.887 295.952 559.887 305.125V325.285C559.887 334.459 561.274 341.765 564.047 347.205C566.927 352.539 571.941 355.205 579.087 355.205Z" fill="#ABA5B6"/>
<path d="M679.825 372.965C672.678 372.965 666.492 371.685 661.265 369.125C656.038 366.459 651.718 362.672 648.305 357.765C644.892 352.859 642.332 346.832 640.625 339.685C639.025 332.539 638.225 324.379 638.225 315.205C638.225 306.139 639.025 298.032 640.625 290.885C642.332 283.632 644.892 277.552 648.305 272.645C651.718 267.739 656.038 264.005 661.265 261.445C666.492 258.779 672.678 257.445 679.825 257.445C694.012 257.445 704.465 262.512 711.185 272.645C718.012 282.779 721.425 296.965 721.425 315.205C721.425 333.445 718.012 347.632 711.185 357.765C704.465 367.899 694.012 372.965 679.825 372.965ZM679.825 355.205C686.972 355.205 691.932 352.539 694.705 347.205C697.585 341.765 699.025 334.459 699.025 325.285V305.125C699.025 295.952 697.585 288.699 694.705 283.365C691.932 277.925 686.972 275.205 679.825 275.205C672.678 275.205 667.665 277.925 664.785 283.365C662.012 288.699 660.625 295.952 660.625 305.125V325.285C660.625 334.459 662.012 341.765 664.785 347.205C667.665 352.539 672.678 355.205 679.825 355.205Z" fill="#ABA5B6"/>
<path d="M780.562 372.965C773.416 372.965 767.229 371.685 762.002 369.125C756.776 366.459 752.456 362.672 749.042 357.765C745.629 352.859 743.069 346.832 741.362 339.685C739.762 332.539 738.962 324.379 738.962 315.205C738.962 306.139 739.762 298.032 741.362 290.885C743.069 283.632 745.629 277.552 749.042 272.645C752.456 267.739 756.776 264.005 762.002 261.445C767.229 258.779 773.416 257.445 780.562 257.445C794.749 257.445 805.202 262.512 811.922 272.645C818.749 282.779 822.162 296.965 822.162 315.205C822.162 333.445 818.749 347.632 811.922 357.765C805.202 367.899 794.749 372.965 780.562 372.965ZM780.562 355.205C787.709 355.205 792.669 352.539 795.442 347.205C798.322 341.765 799.762 334.459 799.762 325.285V305.125C799.762 295.952 798.322 288.699 795.442 283.365C792.669 277.925 787.709 275.205 780.562 275.205C773.416 275.205 768.402 277.925 765.522 283.365C762.749 288.699 761.362 295.952 761.362 305.125V325.285C761.362 334.459 762.749 341.765 765.522 347.205C768.402 352.539 773.416 355.205 780.562 355.205Z" fill="#ABA5B6"/>
<path d="M881.3 372.965C874.153 372.965 867.967 371.685 862.74 369.125C857.513 366.459 853.193 362.672 849.78 357.765C846.367 352.859 843.807 346.832 842.1 339.685C840.5 332.539 839.7 324.379 839.7 315.205C839.7 306.139 840.5 298.032 842.1 290.885C843.807 283.632 846.367 277.552 849.78 272.645C853.193 267.739 857.513 264.005 862.74 261.445C867.967 258.779 874.153 257.445 881.3 257.445C895.487 257.445 905.94 262.512 912.66 272.645C919.487 282.779 922.9 296.965 922.9 315.205C922.9 333.445 919.487 347.632 912.66 357.765C905.94 367.899 895.487 372.965 881.3 372.965ZM881.3 355.205C888.447 355.205 893.407 352.539 896.18 347.205C899.06 341.765 900.5 334.459 900.5 325.285V305.125C900.5 295.952 899.06 288.699 896.18 283.365C893.407 277.925 888.447 275.205 881.3 275.205C874.153 275.205 869.14 277.925 866.26 283.365C863.487 288.699 862.1 295.952 862.1 305.125V325.285C862.1 334.459 863.487 341.765 866.26 347.205C869.14 352.539 874.153 355.205 881.3 355.205Z" fill="#ABA5B6"/>
<path d="M982.037 372.965C974.891 372.965 968.704 371.685 963.477 369.125C958.251 366.459 953.931 362.672 950.517 357.765C947.104 352.859 944.544 346.832 942.837 339.685C941.237 332.539 940.437 324.379 940.437 315.205C940.437 306.139 941.237 298.032 942.837 290.885C944.544 283.632 947.104 277.552 950.517 272.645C953.931 267.739 958.251 264.005 963.477 261.445C968.704 258.779 974.891 257.445 982.037 257.445C996.224 257.445 1006.68 262.512 1013.4 272.645C1020.22 282.779 1023.64 296.965 1023.64 315.205C1023.64 333.445 1020.22 347.632 1013.4 357.765C1006.68 367.899 996.224 372.965 982.037 372.965ZM982.037 355.205C989.184 355.205 994.144 352.539 996.917 347.205C999.797 341.765 1001.24 334.459 1001.24 325.285V305.125C1001.24 295.952 999.797 288.699 996.917 283.365C994.144 277.925 989.184 275.205 982.037 275.205C974.891 275.205 969.877 277.925 966.997 283.365C964.224 288.699 962.837 295.952 962.837 305.125V325.285C962.837 334.459 964.224 341.765 966.997 347.205C969.877 352.539 974.891 355.205 982.037 355.205Z" fill="#ABA5B6"/>
<path d="M1082.77 372.965C1075.63 372.965 1069.44 371.685 1064.21 369.125C1058.99 366.459 1054.67 362.672 1051.25 357.765C1047.84 352.859 1045.28 346.832 1043.57 339.685C1041.97 332.539 1041.17 324.379 1041.17 315.205C1041.17 306.139 1041.97 298.032 1043.57 290.885C1045.28 283.632 1047.84 277.552 1051.25 272.645C1054.67 267.739 1058.99 264.005 1064.21 261.445C1069.44 258.779 1075.63 257.445 1082.77 257.445C1096.96 257.445 1107.41 262.512 1114.13 272.645C1120.96 282.779 1124.37 296.965 1124.37 315.205C1124.37 333.445 1120.96 347.632 1114.13 357.765C1107.41 367.899 1096.96 372.965 1082.77 372.965ZM1082.77 355.205C1089.92 355.205 1094.88 352.539 1097.65 347.205C1100.53 341.765 1101.97 334.459 1101.97 325.285V305.125C1101.97 295.952 1100.53 288.699 1097.65 283.365C1094.88 277.925 1089.92 275.205 1082.77 275.205C1075.63 275.205 1070.61 277.925 1067.73 283.365C1064.96 288.699 1063.57 295.952 1063.57 305.125V325.285C1063.57 334.459 1064.96 341.765 1067.73 347.205C1070.61 352.539 1075.63 355.205 1082.77 355.205Z" fill="#ABA5B6"/>
<path d="M1150.07 371.045V353.925H1180.79V274.565H1179.35L1155.03 303.365L1141.91 292.325L1169.59 259.365H1201.43V353.925H1227.03V371.045H1150.07Z" fill="#ABA5B6"/>
<path d="M1280.4 310.972H1306.97C1311.96 310.972 1315.86 312.377 1318.67 315.186C1321.53 317.995 1322.97 321.751 1322.97 326.452C1322.97 328.688 1322.65 330.609 1322.02 332.214C1321.39 333.762 1320.59 335.052 1319.61 336.084C1318.64 337.059 1317.52 337.804 1316.26 338.32C1315 338.779 1313.76 339.065 1312.56 339.18V339.696C1313.76 339.753 1315.08 340.04 1316.52 340.556C1318.01 341.072 1319.38 341.903 1320.64 343.05C1321.9 344.139 1322.97 345.573 1323.83 347.35C1324.69 349.07 1325.12 351.191 1325.12 353.714C1325.12 356.122 1324.71 358.387 1323.91 360.508C1323.17 362.629 1322.11 364.464 1320.73 366.012C1319.35 367.56 1317.72 368.793 1315.83 369.71C1313.94 370.57 1311.87 371 1309.64 371H1280.4V310.972ZM1290.11 362.658H1306.8C1309.32 362.658 1311.3 361.999 1312.73 360.68C1314.16 359.361 1314.88 357.469 1314.88 355.004V352.08C1314.88 349.615 1314.16 347.723 1312.73 346.404C1311.3 345.085 1309.32 344.426 1306.8 344.426H1290.11V362.658ZM1290.11 336.342H1305.16C1307.57 336.342 1309.43 335.74 1310.75 334.536C1312.07 333.275 1312.73 331.497 1312.73 329.204V326.452C1312.73 324.159 1312.07 322.41 1310.75 321.206C1309.43 319.945 1307.57 319.314 1305.16 319.314H1290.11V336.342Z" fill="#C4C4C4"/>
<path d="M1359.76 319.572V371H1350.04V319.572H1332.15V310.972H1377.64V319.572H1359.76Z" fill="#C4C4C4"/>
<path d="M1410.3 372.032C1402.44 372.032 1396.28 369.395 1391.81 364.12C1387.33 358.788 1385.1 351.077 1385.1 340.986C1385.1 335.941 1385.67 331.497 1386.82 327.656C1387.97 323.815 1389.63 320.575 1391.81 317.938C1393.99 315.301 1396.62 313.323 1399.72 312.004C1402.87 310.628 1406.4 309.94 1410.3 309.94C1415.51 309.94 1419.87 311.087 1423.37 313.38C1426.92 315.673 1429.7 319.056 1431.71 323.528L1423.54 328C1422.51 325.133 1420.9 322.869 1418.72 321.206C1416.6 319.486 1413.79 318.626 1410.3 318.626C1405.65 318.626 1402.01 320.203 1399.37 323.356C1396.74 326.509 1395.42 330.867 1395.42 336.428V345.544C1395.42 351.105 1396.74 355.463 1399.37 358.616C1402.01 361.769 1405.65 363.346 1410.3 363.346C1413.91 363.346 1416.83 362.429 1419.07 360.594C1421.36 358.702 1423.05 356.294 1424.14 353.37L1431.97 358.1C1429.96 362.457 1427.15 365.869 1423.54 368.334C1419.93 370.799 1415.51 372.032 1410.3 372.032Z" fill="#C4C4C4"/>
<path fill-rule="evenodd" clip-rule="evenodd" d="M473 204H1086.5V228H1084.5V206H475V228H473V204Z" fill="black"/>
<path d="M691.355 169L702.993 141.17H690.849V147.104H686.387V136.892H708.145V141.4L696.829 169H691.355Z" fill="#919191"/>
<path d="M750.186 169H726.404V164.354L743.838 141.492H727.324V136.892H749.68V141.538L732.246 164.4H750.186V169Z" fill="#919191"/>
<path d="M757.216 169V136.892H777.778V141.492H762.414V150.416H776.352V155.016H762.414V164.4H777.778V169H757.216Z" fill="#919191"/>
<path d="M791.061 169H785.863V136.892H799.709C802.592 136.892 804.861 137.766 806.517 139.514C808.173 141.231 809.001 143.577 809.001 146.552C809.001 148.852 808.464 150.769 807.391 152.302C806.348 153.805 804.8 154.863 802.745 155.476L809.691 169H803.895L797.455 156.028H791.061V169ZM799.341 151.658C800.66 151.658 801.687 151.321 802.423 150.646C803.159 149.941 803.527 148.944 803.527 147.656V145.448C803.527 144.16 803.159 143.179 802.423 142.504C801.687 141.799 800.66 141.446 799.341 141.446H791.061V151.658H799.341Z" fill="#919191"/>
<path d="M829.357 169.552C827.271 169.552 825.37 169.199 823.653 168.494C821.966 167.758 820.509 166.7 819.283 165.32C818.087 163.909 817.151 162.177 816.477 160.122C815.833 158.037 815.511 155.645 815.511 152.946C815.511 150.247 815.833 147.871 816.477 145.816C817.151 143.731 818.087 141.998 819.283 140.618C820.509 139.207 821.966 138.149 823.653 137.444C825.37 136.708 827.271 136.34 829.357 136.34C831.442 136.34 833.328 136.708 835.015 137.444C836.732 138.149 838.189 139.207 839.385 140.618C840.611 141.998 841.547 143.731 842.191 145.816C842.865 147.871 843.203 150.247 843.203 152.946C843.203 155.645 842.865 158.037 842.191 160.122C841.547 162.177 840.611 163.909 839.385 165.32C838.189 166.7 836.732 167.758 835.015 168.494C833.328 169.199 831.442 169.552 829.357 169.552ZM829.357 164.906C830.583 164.906 831.703 164.691 832.715 164.262C833.757 163.833 834.631 163.219 835.337 162.422C836.073 161.594 836.64 160.597 837.039 159.432C837.437 158.267 837.637 156.948 837.637 155.476V150.416C837.637 148.944 837.437 147.625 837.039 146.46C836.64 145.295 836.073 144.313 835.337 143.516C834.631 142.688 833.757 142.059 832.715 141.63C831.703 141.201 830.583 140.986 829.357 140.986C828.099 140.986 826.965 141.201 825.953 141.63C824.941 142.059 824.067 142.688 823.331 143.516C822.625 144.313 822.073 145.295 821.675 146.46C821.276 147.625 821.077 148.944 821.077 150.416V155.476C821.077 156.948 821.276 158.267 821.675 159.432C822.073 160.597 822.625 161.594 823.331 162.422C824.067 163.219 824.941 163.833 825.953 164.262C826.965 164.691 828.099 164.906 829.357 164.906Z" fill="#919191"/>
<path d="M860.589 169.552C857.89 169.552 855.59 169.061 853.689 168.08C851.818 167.099 850.208 165.78 848.859 164.124L852.447 160.766C853.581 162.146 854.823 163.189 856.173 163.894C857.553 164.599 859.117 164.952 860.865 164.952C862.919 164.952 864.468 164.492 865.511 163.572C866.553 162.652 867.075 161.41 867.075 159.846C867.075 158.589 866.707 157.592 865.971 156.856C865.235 156.12 863.931 155.568 862.061 155.2L859.209 154.694C856.081 154.111 853.735 153.084 852.171 151.612C850.607 150.14 849.825 148.116 849.825 145.54C849.825 144.129 850.085 142.857 850.607 141.722C851.159 140.557 851.91 139.591 852.861 138.824C853.842 138.027 855.023 137.413 856.403 136.984C857.783 136.555 859.331 136.34 861.049 136.34C863.471 136.34 865.572 136.769 867.351 137.628C869.129 138.456 870.647 139.667 871.905 141.262L868.271 144.482C867.443 143.409 866.431 142.55 865.235 141.906C864.039 141.262 862.551 140.94 860.773 140.94C858.933 140.94 857.507 141.308 856.495 142.044C855.483 142.78 854.977 143.853 854.977 145.264C854.977 146.613 855.391 147.625 856.219 148.3C857.047 148.944 858.335 149.435 860.083 149.772L862.935 150.37C866.155 150.983 868.501 152.026 869.973 153.498C871.475 154.97 872.227 156.994 872.227 159.57C872.227 161.073 871.966 162.437 871.445 163.664C870.923 164.891 870.157 165.949 869.145 166.838C868.163 167.697 866.952 168.371 865.511 168.862C864.069 169.322 862.429 169.552 860.589 169.552Z" fill="#919191"/>
<path d="M177 519C177 492.49 198.49 471 225 471H1487C1513.51 471 1535 492.49 1535 519V777C1535 803.51 1513.51 825 1487 825H225C198.49 825 177 803.51 177 777V519Z" fill="#F8F5FF"/>
<path d="M586.417 681V671.036H607.193V615.704H606.345L589.173 634.042L581.859 627.47L600.727 607.012H618.959V671.036H636.979V681H586.417Z" fill="#5B10FF"/>
<path d="M703.329 682.272C697.11 682.272 691.81 681.141 687.429 678.88C683.118 676.619 679.408 673.58 676.299 669.764L684.567 662.026C687.181 665.206 690.043 667.609 693.153 669.234C696.333 670.859 699.937 671.672 703.965 671.672C708.699 671.672 712.268 670.612 714.671 668.492C717.073 666.372 718.275 663.51 718.275 659.906C718.275 657.009 717.427 654.712 715.731 653.016C714.035 651.32 711.031 650.048 706.721 649.2L700.149 648.034C692.941 646.691 687.535 644.324 683.931 640.932C680.327 637.54 678.525 632.876 678.525 626.94C678.525 623.689 679.125 620.757 680.327 618.142C681.599 615.457 683.33 613.231 685.521 611.464C687.782 609.627 690.503 608.213 693.683 607.224C696.863 606.235 700.431 605.74 704.389 605.74C709.971 605.74 714.812 606.729 718.911 608.708C723.009 610.616 726.507 613.407 729.405 617.082L721.031 624.502C719.123 622.029 716.791 620.05 714.035 618.566C711.279 617.082 707.851 616.34 703.753 616.34C699.513 616.34 696.227 617.188 693.895 618.884C691.563 620.58 690.397 623.053 690.397 626.304C690.397 629.413 691.351 631.745 693.259 633.3C695.167 634.784 698.135 635.915 702.163 636.692L708.735 638.07C716.155 639.483 721.561 641.886 724.953 645.278C728.415 648.67 730.147 653.334 730.147 659.27C730.147 662.733 729.546 665.877 728.345 668.704C727.143 671.531 725.377 673.969 723.045 676.018C720.783 677.997 717.992 679.551 714.671 680.682C711.349 681.742 707.569 682.272 703.329 682.272Z" fill="#5B10FF"/>
<path d="M793.922 681L787.244 660.966H759.578L753.112 681H740.922L766.15 607.012H781.202L806.43 681H793.922ZM773.676 618.036H773.146L762.44 650.684H784.276L773.676 618.036Z" fill="#5B10FF"/>
<path d="M841.588 617.612V681H829.61V617.612H807.562V607.012H863.636V617.612H841.588Z" fill="#5B10FF"/>
<path d="M904.731 682.272C899.926 682.272 895.545 681.459 891.587 679.834C887.701 678.138 884.344 675.7 881.517 672.52C878.761 669.269 876.606 665.277 875.051 660.542C873.567 655.737 872.825 650.225 872.825 644.006C872.825 637.787 873.567 632.311 875.051 627.576C876.606 622.771 878.761 618.778 881.517 615.598C884.344 612.347 887.701 609.909 891.587 608.284C895.545 606.588 899.926 605.74 904.731 605.74C909.537 605.74 913.883 606.588 917.769 608.284C921.727 609.909 925.083 612.347 927.839 615.598C930.666 618.778 932.821 622.771 934.305 627.576C935.86 632.311 936.637 637.787 936.637 644.006C936.637 650.225 935.86 655.737 934.305 660.542C932.821 665.277 930.666 669.269 927.839 672.52C925.083 675.7 921.727 678.138 917.769 679.834C913.883 681.459 909.537 682.272 904.731 682.272ZM904.731 671.566C907.558 671.566 910.137 671.071 912.469 670.082C914.872 669.093 916.886 667.679 918.511 665.842C920.207 663.934 921.515 661.637 922.433 658.952C923.352 656.267 923.811 653.228 923.811 649.836V638.176C923.811 634.784 923.352 631.745 922.433 629.06C921.515 626.375 920.207 624.113 918.511 622.276C916.886 620.368 914.872 618.919 912.469 617.93C910.137 616.941 907.558 616.446 904.731 616.446C901.834 616.446 899.219 616.941 896.887 617.93C894.555 618.919 892.541 620.368 890.845 622.276C889.22 624.113 887.948 626.375 887.029 629.06C886.111 631.745 885.651 634.784 885.651 638.176V649.836C885.651 653.228 886.111 656.267 887.029 658.952C887.948 661.637 889.22 663.934 890.845 665.842C892.541 667.679 894.555 669.093 896.887 670.082C899.219 671.071 901.834 671.566 904.731 671.566Z" fill="#5B10FF"/>
<path d="M976.701 682.272C970.482 682.272 965.182 681.141 960.801 678.88C956.49 676.619 952.78 673.58 949.671 669.764L957.939 662.026C960.554 665.206 963.416 667.609 966.525 669.234C969.705 670.859 973.309 671.672 977.337 671.672C982.072 671.672 985.64 670.612 988.043 668.492C990.446 666.372 991.647 663.51 991.647 659.906C991.647 657.009 990.799 654.712 989.103 653.016C987.407 651.32 984.404 650.048 980.093 649.2L973.521 648.034C966.313 646.691 960.907 644.324 957.303 640.932C953.699 637.54 951.897 632.876 951.897 626.94C951.897 623.689 952.498 620.757 953.699 618.142C954.971 615.457 956.702 613.231 958.893 611.464C961.154 609.627 963.875 608.213 967.055 607.224C970.235 606.235 973.804 605.74 977.761 605.74C983.344 605.74 988.184 606.729 992.283 608.708C996.382 610.616 999.88 613.407 1002.78 617.082L994.403 624.502C992.495 622.029 990.163 620.05 987.407 618.566C984.651 617.082 981.224 616.34 977.125 616.34C972.885 616.34 969.599 617.188 967.267 618.884C964.935 620.58 963.769 623.053 963.769 626.304C963.769 629.413 964.723 631.745 966.631 633.3C968.539 634.784 971.507 635.915 975.535 636.692L982.107 638.07C989.527 639.483 994.933 641.886 998.325 645.278C1001.79 648.67 1003.52 653.334 1003.52 659.27C1003.52 662.733 1002.92 665.877 1001.72 668.704C1000.52 671.531 998.749 673.969 996.417 676.018C994.156 677.997 991.364 679.551 988.043 680.682C984.722 681.742 980.941 682.272 976.701 682.272Z" fill="#5B10FF"/>
<path d="M1066.55 648.776H1033.06V681H1021.08V607.012H1033.06V638.176H1066.55V607.012H1078.53V681H1066.55V648.776Z" fill="#5B10FF"/>
<path d="M1096.75 681V671.248H1106.82V616.764H1096.75V607.012H1128.97V616.764H1118.8V671.248H1128.97V681H1096.75Z" fill="#5B10FF"/>
<path d="M1174.99 423.564L1103 496H1264L1192.01 423.564C1187.32 418.843 1179.68 418.843 1174.99 423.564Z" fill="#F8F5FF"/>
</svg>
